<svg xmlns="http://www.w3.org/2000/svg" width="84" height="86" viewBox="0 0 84 86" version="1.1"><path d="M 35.478 1.036 C 34.770 2.181, 16.658 10.993, 14.133 11.420 C 13.381 11.548, 12.211 12.968, 11.533 14.576 C 10.855 16.184, 9.108 18.915, 7.650 20.644 C 6.193 22.374, 5 24.249, 5 24.811 C 5 25.374, 4.026 28.009, 2.836 30.667 C 1.646 33.325, 0.767 35.898, 0.881 36.385 C 1.165 37.587, 3.064 52.747, 3.416 56.613 C 3.751 60.298, 8.829 67.482, 16.195 74.693 C 21.362 79.752, 21.825 79.968, 34 82.995 L 46.500 86.102 57.500 80.070 C 63.550 76.752, 68.950 74.018, 69.500 73.993 C 70.050 73.969, 71.279 72.273, 72.231 70.224 C 73.184 68.176, 76.167 62.809, 78.862 58.297 C 81.556 53.786, 83.631 49.961, 83.472 49.797 C 83.313 49.634, 82.392 43.913, 81.426 37.085 C 80.298 29.109, 79.103 24.082, 78.085 23.026 C 77.213 22.122, 73.303 17.990, 69.397 13.843 C 63.318 7.390, 61.677 6.204, 58.021 5.619 C 55.672 5.244, 52.861 4.461, 51.774 3.879 C 50.688 3.298, 47.345 2.672, 44.346 2.489 C 41.347 2.306, 38.283 1.650, 37.536 1.030 C 36.528 0.194, 35.997 0.195, 35.478 1.036 M 32.500 5.098 C 29.640 7.085, 29.617 7.157, 32 6.639 C 33.375 6.340, 36.413 5.792, 38.750 5.420 C 41.087 5.048, 43 4.352, 43 3.872 C 43 2.149, 35.480 3.027, 32.500 5.098 M 37.750 6.751 C 32.938 7.582, 29 8.566, 29 8.938 C 29 9.309, 32.142 11.134, 35.982 12.991 C 39.822 14.849, 42.764 16.569, 42.520 16.813 C 42.275 17.058, 38.637 15.625, 34.434 13.629 C 30.231 11.633, 26.443 10, 26.015 10 C 25.587 10, 24.710 12.137, 24.066 14.750 C 21.582 24.818, 20.852 27.185, 20.378 26.712 C 19.927 26.260, 22.254 16.108, 23.630 12.521 C 24.075 11.363, 23.779 11.148, 22.447 11.659 C 21.288 12.104, 20.906 11.960, 21.348 11.246 C 21.733 10.623, 20.300 10.829, 18.024 11.723 C 15.410 12.749, 13.289 14.542, 11.902 16.897 L 9.779 20.500 12.140 18.529 C 13.438 17.445, 15.733 15.452, 17.240 14.102 C 18.746 12.751, 20.225 11.892, 20.526 12.193 C 20.827 12.493, 18.356 15.092, 15.036 17.969 C 11.716 20.845, 9 23.500, 9 23.870 C 9 25.086, 17.684 29.314, 18.785 28.633 C 19.377 28.267, 20.149 28.432, 20.500 29 C 20.851 29.568, 21.670 29.734, 22.319 29.370 C 23.170 28.892, 23.161 29.073, 22.285 30.018 C 21.323 31.057, 21.427 31.598, 22.785 32.615 C 24.325 33.770, 24.271 33.843, 22.250 33.334 C 20.409 32.870, 19.979 33.197, 19.884 35.133 C 19.799 36.866, 19.644 37.025, 19.306 35.726 C 18.414 32.301, 11.224 26, 8.208 26 C 7.299 26, 4.424 43.758, 5.206 44.540 C 5.427 44.760, 7.995 42.228, 10.913 38.913 C 13.831 35.598, 16.454 33.121, 16.742 33.409 C 17.030 33.697, 14.494 37.060, 11.105 40.881 L 4.944 47.830 13.130 53.469 C 18.540 57.196, 21.554 58.722, 22.019 57.970 C 22.749 56.788, 24.512 59.650, 24.117 61.375 C 24.007 61.856, 24.539 62.981, 25.300 63.875 C 26.060 64.769, 28.362 68.313, 30.414 71.750 C 32.466 75.188, 34.458 78, 34.841 78 C 35.223 78, 37.579 76.313, 40.075 74.250 C 42.571 72.188, 45.713 69.762, 47.057 68.859 C 48.401 67.957, 49.236 66.943, 48.914 66.606 C 48.591 66.269, 44.316 65.140, 39.414 64.097 C 34.511 63.054, 31.239 62.155, 32.143 62.100 C 33.047 62.045, 37.244 62.715, 41.471 63.589 C 45.697 64.463, 49.355 64.978, 49.600 64.733 C 49.845 64.488, 48.675 61.233, 47 57.500 C 45.325 53.767, 44.125 50.542, 44.333 50.333 C 44.542 50.125, 46.153 53.178, 47.915 57.118 C 50.208 62.245, 51.425 63.975, 52.198 63.202 C 52.791 62.609, 55.957 57.483, 59.232 51.811 C 62.508 46.140, 64.935 42.286, 64.627 43.246 C 64.318 44.206, 61.562 49.329, 58.501 54.631 C 55.440 59.932, 53.174 64.508, 53.466 64.799 C 53.757 65.090, 57.098 64.580, 60.891 63.664 C 64.683 62.749, 68.397 61.993, 69.143 61.985 C 73.642 61.934, 73.468 60.558, 66.893 44.150 C 66.376 42.858, 65.025 41.558, 63.891 41.261 C 62.401 40.872, 62.183 40.505, 63.105 39.935 C 64.014 39.374, 62.120 36.658, 56.512 30.481 C 47.507 20.562, 45.271 19.291, 40.851 21.577 C 39.181 22.441, 37.617 22.950, 37.375 22.708 C 37.133 22.467, 38.296 21.706, 39.959 21.017 C 41.622 20.328, 43.839 18.355, 44.885 16.632 C 46.937 13.255, 48.712 4.923, 47.338 5.120 C 46.877 5.186, 42.563 5.920, 37.750 6.751 M 48.197 11.250 C 47.310 15.610, 47.381 16.695, 48.617 17.649 C 49.614 18.418, 49.728 18.924, 48.962 19.179 C 47.908 19.531, 62.952 37.144, 64.850 37.781 C 65.311 37.936, 66.209 34.336, 66.845 29.781 C 68.683 16.628, 69.270 17.606, 60 18.380 C 54.777 18.815, 52 18.692, 52 18.023 C 52 17.416, 55.149 16.990, 59.750 16.974 L 67.500 16.948 59 11.476 C 54.325 8.466, 50.222 6.002, 49.883 6.001 C 49.543 6.001, 48.784 8.362, 48.197 11.250 M 57 8.230 C 58.925 9.549, 62.241 11.681, 64.368 12.968 C 68.102 15.228, 68.197 15.237, 67.120 13.224 C 65.555 10.300, 61.127 7.375, 57 6.541 L 53.500 5.833 57 8.230 M 72.990 21.807 C 74.150 24.176, 75.975 27.551, 77.046 29.307 L 78.993 32.500 78.996 29.211 C 78.999 26.722, 78.013 24.899, 74.941 21.711 L 70.881 17.500 72.990 21.807 M 69.618 22.056 C 69.360 22.850, 68.868 25.750, 68.524 28.500 C 68.180 31.250, 67.658 34.900, 67.364 36.612 L 66.829 39.724 72.629 38.815 C 75.818 38.314, 78.587 37.746, 78.781 37.552 C 79.171 37.162, 75.043 28.764, 72.015 23.785 C 70.685 21.598, 69.940 21.061, 69.618 22.056 M 45 22.500 C 45 22.775, 45.225 23, 45.500 23 C 45.775 23, 46 22.775, 46 22.500 C 46 22.225, 45.775 22, 45.500 22 C 45.225 22, 45 22.225, 45 22.500 M 35 23.500 C 35 23.775, 35.225 24, 35.500 24 C 35.775 24, 36 23.775, 36 23.500 C 36 23.225, 35.775 23, 35.500 23 C 35.225 23, 35 23.225, 35 23.500 M 33 24.500 C 33 24.775, 33.225 25, 33.500 25 C 33.775 25, 34 24.775, 34 24.500 C 34 24.225, 33.775 24, 33.500 24 C 33.225 24, 33 24.225, 33 24.500 M 28 26.500 C 26.625 27.286, 25.950 27.929, 26.500 27.929 C 27.050 27.929, 28.625 27.286, 30 26.500 C 31.375 25.714, 32.050 25.071, 31.500 25.071 C 30.950 25.071, 29.375 25.714, 28 26.500 M 44.079 26.583 C 44.127 27.748, 44.364 27.985, 44.683 27.188 C 44.972 26.466, 44.936 25.603, 44.604 25.271 C 44.272 24.939, 44.036 25.529, 44.079 26.583 M 24 28.500 C 24 28.775, 24.225 29, 24.500 29 C 24.775 29, 25 28.775, 25 28.500 C 25 28.225, 24.775 28, 24.500 28 C 24.225 28, 24 28.225, 24 28.500 M 43.079 31.583 C 43.127 32.748, 43.364 32.985, 43.683 32.188 C 43.972 31.466, 43.936 30.603, 43.604 30.271 C 43.272 29.939, 43.036 30.529, 43.079 31.583 M 3.321 33.699 C 2.821 35.240, 2.672 38.075, 2.990 40 C 3.514 43.170, 3.632 42.937, 4.235 37.533 C 4.982 30.837, 4.673 29.540, 3.321 33.699 M 79 33.500 C 79 33.775, 79.225 34, 79.500 34 C 79.775 34, 80 33.775, 80 33.500 C 80 33.225, 79.775 33, 79.500 33 C 79.225 33, 79 33.225, 79 33.500 M 25 34.459 C 25 34.734, 26.800 35.878, 29 37 C 31.200 38.122, 33 38.816, 33 38.541 C 33 38.266, 31.200 37.122, 29 36 C 26.800 34.878, 25 34.184, 25 34.459 M 42.079 36.583 C 42.127 37.748, 42.364 37.985, 42.683 37.188 C 42.972 36.466, 42.936 35.603, 42.604 35.271 C 42.272 34.939, 42.036 35.529, 42.079 36.583 M 34 39.500 C 34 39.775, 34.225 40, 34.500 40 C 34.775 40, 35 39.775, 35 39.500 C 35 39.225, 34.775 39, 34.500 39 C 34.225 39, 34 39.225, 34 39.500 M 39.741 40.125 C 38.775 40.666, 37.425 40.793, 36.742 40.407 C 35.766 39.856, 35.767 39.994, 36.750 41.053 C 39.001 43.478, 38.092 45.246, 31.166 51.917 C 27.407 55.538, 25.494 57.611, 26.916 56.524 C 28.337 55.438, 31.603 52.564, 34.173 50.138 C 37.379 47.111, 39.449 45.884, 40.767 46.229 C 41.945 46.537, 43.121 46.035, 43.811 44.931 C 44.429 43.941, 46.412 42.949, 48.217 42.726 L 51.500 42.320 48.079 42.160 C 46.197 42.072, 43.947 41.357, 43.078 40.571 C 41.952 39.552, 40.994 39.424, 39.741 40.125 M 72.195 40.204 C 69.277 40.735, 67.027 41.469, 67.195 41.835 C 67.363 42.201, 69.064 46.245, 70.976 50.822 C 72.888 55.399, 74.551 58.774, 74.673 58.322 C 74.794 57.870, 76.011 53.337, 77.377 48.250 C 79.061 41.975, 79.480 39.038, 78.680 39.119 C 78.031 39.184, 75.113 39.672, 72.195 40.204 M 20.232 43 C 20.232 44.925, 20.438 45.712, 20.689 44.750 C 20.941 43.788, 20.941 42.212, 20.689 41.250 C 20.438 40.288, 20.232 41.075, 20.232 43 M 53.750 41.706 C 54.987 41.944, 57.013 41.944, 58.250 41.706 C 59.487 41.467, 58.475 41.272, 56 41.272 C 53.525 41.272, 52.513 41.467, 53.750 41.706 M 78.787 49.113 C 77.856 52.586, 77.247 55.580, 77.433 55.767 C 77.619 55.953, 78.690 54.619, 79.812 52.803 C 81.335 50.336, 81.678 48.652, 81.165 46.149 C 80.494 42.873, 80.441 42.941, 78.787 49.113 M 21.252 51.500 C 21.263 53.700, 21.468 54.482, 21.707 53.238 C 21.946 51.994, 21.937 50.194, 21.687 49.238 C 21.437 48.282, 21.241 49.300, 21.252 51.500 M 43 48.500 C 43 48.775, 43.225 49, 43.500 49 C 43.775 49, 44 48.775, 44 48.500 C 44 48.225, 43.775 48, 43.500 48 C 43.225 48, 43 48.225, 43 48.500 M 9.132 59.308 C 11.259 64.286, 13 68.494, 13 68.659 C 13 69.076, 19.672 72.438, 26.452 75.436 L 32.131 77.948 29.874 74.224 C 24.023 64.567, 22.894 63, 21.785 63 C 21.131 63, 19.019 64.462, 17.093 66.250 L 13.591 69.500 17.266 64.868 L 20.941 60.236 13.102 55.247 L 5.263 50.257 9.132 59.308 M 5 56.723 C 5 57.853, 5.898 59.841, 6.995 61.139 L 8.989 63.500 7.389 59.500 C 5.422 54.580, 5 54.090, 5 56.723 M 26.750 61.662 C 27.438 61.940, 28.563 61.940, 29.250 61.662 C 29.938 61.385, 29.375 61.158, 28 61.158 C 26.625 61.158, 26.063 61.385, 26.750 61.662 M 64.500 64.559 C 61.200 65.303, 57.263 65.932, 55.750 65.956 C 54.237 65.980, 53 66.240, 53 66.533 C 53 66.827, 54.164 69.363, 55.586 72.171 L 58.173 77.275 65.086 70.414 C 68.889 66.641, 72 63.429, 72 63.277 C 72 62.899, 71.397 63.003, 64.500 64.559 M 66.958 70.612 C 62.649 75.070, 62.608 75.169, 65.733 73.595 C 67.511 72.699, 69.660 70.624, 70.509 68.983 C 71.357 67.342, 71.908 66, 71.734 66 C 71.559 66, 69.410 68.075, 66.958 70.612 M 43.500 73.652 L 37.500 79.212 43.897 78.606 C 47.415 78.273, 51.828 78, 53.704 78 L 57.115 78 54.308 73.001 C 52.763 70.252, 51.050 68.022, 50.500 68.047 C 49.950 68.072, 46.800 70.594, 43.500 73.652 M 21.306 76.492 C 22.849 77.872, 25.286 79, 26.722 79 C 30.041 79, 29.601 78.600, 23.480 76.055 L 18.500 73.985 21.306 76.492 M 40.572 80.884 C 40.271 81.370, 41.322 82.305, 42.908 82.962 C 45.359 83.977, 46.366 83.852, 49.645 82.122 L 53.500 80.088 47.309 80.044 C 43.904 80.020, 40.872 80.398, 40.572 80.884" stroke="none" fill="#707179" fill-rule="evenodd"/><path d="M 27.686 20.125 C 24.489 22.350, 21.629 24.804, 21.331 25.579 C 21.034 26.354, 20.435 26.769, 20 26.500 C 19.565 26.231, 18.943 26.707, 18.616 27.558 C 18.290 28.408, 18.437 28.848, 18.942 28.536 C 19.448 28.223, 20.149 28.432, 20.500 29 C 20.851 29.568, 21.670 29.734, 22.319 29.370 C 23.170 28.892, 23.161 29.073, 22.285 30.018 C 21.323 31.057, 21.427 31.598, 22.785 32.615 C 24.335 33.777, 24.291 33.848, 22.332 33.355 C 20.639 32.929, 20.066 33.323, 19.718 35.155 C 19.276 37.481, 19.271 37.482, 19.136 35.250 C 19.061 34.013, 18.601 33, 18.114 33 C 16.898 33, 13.750 39.838, 13.750 42.479 C 13.750 46.056, 16.880 55.655, 18.479 56.982 C 19.303 57.667, 19.751 58.595, 19.473 59.044 C 19.195 59.494, 19.494 60.187, 20.138 60.585 C 20.782 60.983, 21.062 60.902, 20.759 60.405 C 20.457 59.907, 20.797 58.958, 21.515 58.295 C 22.545 57.343, 22.978 57.449, 23.568 58.795 C 23.979 59.733, 24.234 61.024, 24.134 61.663 C 24.034 62.303, 25.917 64.437, 28.319 66.405 C 32.342 69.702, 33.189 69.979, 39.093 69.932 C 42.617 69.904, 46.723 69.889, 48.217 69.898 C 49.712 69.907, 51.245 69.413, 51.624 68.800 C 52.079 68.063, 51.606 67.870, 50.231 68.229 C 48.788 68.607, 48.303 68.375, 48.649 67.473 C 48.996 66.568, 47.376 65.813, 43.324 64.991 C 33.485 62.995, 30.429 62.205, 32.143 62.100 C 33.047 62.045, 37.244 62.715, 41.471 63.589 C 45.697 64.463, 49.355 64.978, 49.600 64.733 C 49.845 64.488, 48.675 61.233, 47 57.500 C 45.325 53.767, 44.125 50.542, 44.333 50.333 C 44.542 50.125, 46.153 53.178, 47.915 57.118 C 50.208 62.245, 51.425 63.975, 52.198 63.202 C 52.791 62.609, 55.957 57.483, 59.232 51.811 C 62.508 46.140, 64.935 42.286, 64.627 43.246 C 64.318 44.206, 61.562 49.329, 58.501 54.631 C 55.440 59.932, 53.154 64.488, 53.421 64.755 C 54.345 65.678, 60.865 63.930, 62.881 62.218 C 64.021 61.250, 65.663 57.584, 66.643 53.817 C 68.596 46.315, 67.707 42.259, 63.891 41.261 C 62.401 40.872, 62.183 40.505, 63.105 39.935 C 64.014 39.374, 62.120 36.658, 56.512 30.481 C 47.507 20.562, 45.271 19.291, 40.851 21.577 C 39.181 22.441, 37.617 22.950, 37.375 22.708 C 37.133 22.467, 38.317 21.697, 40.006 20.997 C 41.695 20.298, 43.475 18.981, 43.962 18.070 C 44.734 16.628, 44.118 16.394, 39.174 16.248 C 34.039 16.098, 32.948 16.466, 27.686 20.125 M 48.303 17.347 C 49.432 18.255, 49.678 18.941, 48.962 19.179 C 47.854 19.549, 63.002 37.162, 65.006 37.833 C 66.254 38.252, 66.308 31.940, 65.083 28.719 C 64.215 26.434, 55.034 19, 53.081 19 C 52.578 19, 52.017 18.609, 51.833 18.132 C 51.650 17.655, 50.375 16.957, 49 16.580 C 46.686 15.947, 46.634 16.004, 48.303 17.347 M 45 22.500 C 45 22.775, 45.225 23, 45.500 23 C 45.775 23, 46 22.775, 46 22.500 C 46 22.225, 45.775 22, 45.500 22 C 45.225 22, 45 22.225, 45 22.500 M 35 23.500 C 35 23.775, 35.225 24, 35.500 24 C 35.775 24, 36 23.775, 36 23.500 C 36 23.225, 35.775 23, 35.500 23 C 35.225 23, 35 23.225, 35 23.500 M 33 24.500 C 33 24.775, 33.225 25, 33.500 25 C 33.775 25, 34 24.775, 34 24.500 C 34 24.225, 33.775 24, 33.500 24 C 33.225 24, 33 24.225, 33 24.500 M 28 26.500 C 26.625 27.286, 25.950 27.929, 26.500 27.929 C 27.050 27.929, 28.625 27.286, 30 26.500 C 31.375 25.714, 32.050 25.071, 31.500 25.071 C 30.950 25.071, 29.375 25.714, 28 26.500 M 44.079 26.583 C 44.127 27.748, 44.364 27.985, 44.683 27.188 C 44.972 26.466, 44.936 25.603, 44.604 25.271 C 44.272 24.939, 44.036 25.529, 44.079 26.583 M 24 28.500 C 24 28.775, 24.225 29, 24.500 29 C 24.775 29, 25 28.775, 25 28.500 C 25 28.225, 24.775 28, 24.500 28 C 24.225 28, 24 28.225, 24 28.500 M 43.079 31.583 C 43.127 32.748, 43.364 32.985, 43.683 32.188 C 43.972 31.466, 43.936 30.603, 43.604 30.271 C 43.272 29.939, 43.036 30.529, 43.079 31.583 M 25 34.459 C 25 34.734, 26.800 35.878, 29 37 C 31.200 38.122, 33 38.816, 33 38.541 C 33 38.266, 31.200 37.122, 29 36 C 26.800 34.878, 25 34.184, 25 34.459 M 42.079 36.583 C 42.127 37.748, 42.364 37.985, 42.683 37.188 C 42.972 36.466, 42.936 35.603, 42.604 35.271 C 42.272 34.939, 42.036 35.529, 42.079 36.583 M 67.158 38 C 67.158 39.375, 67.385 39.938, 67.662 39.250 C 67.940 38.563, 67.940 37.438, 67.662 36.750 C 67.385 36.063, 67.158 36.625, 67.158 38 M 34 39.500 C 34 39.775, 34.225 40, 34.500 40 C 34.775 40, 35 39.775, 35 39.500 C 35 39.225, 34.775 39, 34.500 39 C 34.225 39, 34 39.225, 34 39.500 M 39.741 40.125 C 38.775 40.666, 37.425 40.793, 36.742 40.407 C 35.766 39.856, 35.767 39.994, 36.750 41.053 C 39.001 43.478, 38.092 45.246, 31.166 51.917 C 27.407 55.538, 25.494 57.611, 26.916 56.524 C 28.337 55.438, 31.603 52.564, 34.173 50.138 C 37.379 47.111, 39.449 45.884, 40.767 46.229 C 41.945 46.537, 43.121 46.035, 43.811 44.931 C 44.429 43.941, 46.412 42.949, 48.217 42.726 L 51.500 42.320 48.079 42.160 C 46.197 42.072, 43.947 41.357, 43.078 40.571 C 41.952 39.552, 40.994 39.424, 39.741 40.125 M 20.232 43 C 20.232 44.925, 20.438 45.712, 20.689 44.750 C 20.941 43.788, 20.941 42.212, 20.689 41.250 C 20.438 40.288, 20.232 41.075, 20.232 43 M 53.750 41.706 C 54.987 41.944, 57.013 41.944, 58.250 41.706 C 59.487 41.467, 58.475 41.272, 56 41.272 C 53.525 41.272, 52.513 41.467, 53.750 41.706 M 67.393 42.582 C 67.727 43.452, 68 44.378, 68 44.641 C 68 44.903, 68.430 44.852, 68.956 44.527 C 70.117 43.809, 69.185 41, 67.786 41 C 67.236 41, 67.059 41.712, 67.393 42.582 M 21.252 51.500 C 21.263 53.700, 21.468 54.482, 21.707 53.238 C 21.946 51.994, 21.937 50.194, 21.687 49.238 C 21.437 48.282, 21.241 49.300, 21.252 51.500 M 43 48.500 C 43 48.775, 43.225 49, 43.500 49 C 43.775 49, 44 48.775, 44 48.500 C 44 48.225, 43.775 48, 43.500 48 C 43.225 48, 43 48.225, 43 48.500 M 26.750 61.662 C 27.438 61.940, 28.563 61.940, 29.250 61.662 C 29.938 61.385, 29.375 61.158, 28 61.158 C 26.625 61.158, 26.063 61.385, 26.750 61.662 M 53 66.969 C 53 67.501, 53.675 67.678, 54.500 67.362 C 55.325 67.045, 56 66.609, 56 66.393 C 56 66.177, 55.325 66, 54.500 66 C 53.675 66, 53 66.436, 53 66.969" stroke="none" fill="#a2c9e7" fill-rule="evenodd"/></svg>